<svg width="400" height="300" viewBox="0 0 400 300" fill="none" xmlns="http://www.w3.org/2000/svg">
  <!-- Background -->
  <rect width="400" height="300" rx="12" fill="url(#dashboardGradient)"/>
  
  <!-- Header -->
  <rect x="20" y="20" width="360" height="40" rx="8" fill="#FFFFFF" opacity="0.9"/>
  <rect x="30" y="30" width="80" height="20" rx="4" fill="#8B5CF6"/>
  <rect x="120" y="30" width="60" height="20" rx="4" fill="#E5E7EB"/>
  <rect x="190" y="30" width="60" height="20" rx="4" fill="#E5E7EB"/>
  <rect x="260" y="30" width="60" height="20" rx="4" fill="#E5E7EB"/>
  <circle cx="350" cy="40" r="8" fill="#10B981"/>
  
  <!-- Main Content Area -->
  <rect x="20" y="80" width="360" height="200" rx="8" fill="#FFFFFF" opacity="0.9"/>
  
  <!-- Sidebar -->
  <rect x="30" y="90" width="80" height="180" rx="4" fill="#F8F9FA"/>
  <rect x="40" y="100" width="60" height="8" fill="#8B5CF6"/>
  <rect x="40" y="115" width="60" height="8" fill="#E5E7EB"/>
  <rect x="40" y="130" width="60" height="8" fill="#E5E7EB"/>
  <rect x="40" y="145" width="60" height="8" fill="#E5E7EB"/>
  <rect x="40" y="160" width="60" height="8" fill="#E5E7EB"/>
  <rect x="40" y="175" width="60" height="8" fill="#E5E7EB"/>
  <rect x="40" y="190" width="60" height="8" fill="#E5E7EB"/>
  <rect x="40" y="205" width="60" height="8" fill="#E5E7EB"/>
  <rect x="40" y="220" width="60" height="8" fill="#E5E7EB"/>
  <rect x="40" y="235" width="60" height="8" fill="#E5E7EB"/>
  <rect x="40" y="250" width="60" height="8" fill="#E5E7EB"/>
  
  <!-- Main Dashboard Content -->
  <rect x="120" y="90" width="250" height="180" rx="4" fill="#FFFFFF"/>
  
  <!-- Stats Cards -->
  <rect x="130" y="100" width="70" height="50" rx="4" fill="#F0FDF4" stroke="#10B981" stroke-width="1"/>
  <rect x="135" y="105" width="20" height="15" fill="#10B981"/>
  <rect x="160" y="110" width="35" height="5" fill="#10B981"/>
  <rect x="160" y="120" width="25" height="3" fill="#6B7280"/>
  <rect x="160" y="130" width="30" height="3" fill="#6B7280"/>
  
  <rect x="210" y="100" width="70" height="50" rx="4" fill="#FEF3C7" stroke="#F59E0B" stroke-width="1"/>
  <rect x="215" y="105" width="20" height="15" fill="#F59E0B"/>
  <rect x="240" y="110" width="35" height="5" fill="#F59E0B"/>
  <rect x="240" y="120" width="25" height="3" fill="#6B7280"/>
  <rect x="240" y="130" width="30" height="3" fill="#6B7280"/>
  
  <rect x="290" y="100" width="70" height="50" rx="4" fill="#EDE9FE" stroke="#8B5CF6" stroke-width="1"/>
  <rect x="295" y="105" width="20" height="15" fill="#8B5CF6"/>
  <rect x="320" y="110" width="35" height="5" fill="#8B5CF6"/>
  <rect x="320" y="120" width="25" height="3" fill="#6B7280"/>
  <rect x="320" y="130" width="30" height="3" fill="#6B7280"/>
  
  <!-- Chart Area -->
  <rect x="130" y="160" width="230" height="100" rx="4" fill="#F8F9FA"/>
  <rect x="140" y="170" width="210" height="80" fill="#FFFFFF"/>
  
  <!-- Chart Bars -->
  <rect x="150" y="220" width="15" height="20" fill="#8B5CF6"/>
  <rect x="170" y="210" width="15" height="30" fill="#10B981"/>
  <rect x="190" y="200" width="15" height="40" fill="#F59E0B"/>
  <rect x="210" y="190" width="15" height="50" fill="#EF4444"/>
  <rect x="230" y="205" width="15" height="35" fill="#8B5CF6"/>
  <rect x="250" y="215" width="15" height="25" fill="#10B981"/>
  <rect x="270" y="195" width="15" height="45" fill="#F59E0B"/>
  <rect x="290" y="185" width="15" height="55" fill="#EF4444"/>
  <rect x="310" y="210" width="15" height="30" fill="#8B5CF6"/>
  <rect x="330" y="200" width="15" height="40" fill="#10B981"/>
  
  <!-- Chart Labels -->
  <text x="157" y="245" font-family="Arial" font-size="8" text-anchor="middle" fill="#6B7280">Jan</text>
  <text x="177" y="245" font-family="Arial" font-size="8" text-anchor="middle" fill="#6B7280">Feb</text>
  <text x="197" y="245" font-family="Arial" font-size="8" text-anchor="middle" fill="#6B7280">Mar</text>
  <text x="217" y="245" font-family="Arial" font-size="8" text-anchor="middle" fill="#6B7280">Apr</text>
  <text x="237" y="245" font-family="Arial" font-size="8" text-anchor="middle" fill="#6B7280">May</text>
  <text x="257" y="245" font-family="Arial" font-size="8" text-anchor="middle" fill="#6B7280">Jun</text>
  <text x="277" y="245" font-family="Arial" font-size="8" text-anchor="middle" fill="#6B7280">Jul</text>
  <text x="297" y="245" font-family="Arial" font-size="8" text-anchor="middle" fill="#6B7280">Aug</text>
  <text x="317" y="245" font-family="Arial" font-size="8" text-anchor="middle" fill="#6B7280">Sep</text>
  <text x="337" y="245" font-family="Arial" font-size="8" text-anchor="middle" fill="#6B7280">Oct</text>
  
  <!-- Chart Title -->
  <text x="245" y="185" font-family="Arial" font-size="10" font-weight="bold" text-anchor="middle" fill="#1F2937">Performance Metrics</text>
  
  <defs>
    <linearGradient id="dashboardGradient" x1="0%" y1="0%" x2="100%" y2="100%">
      <stop offset="0%" style="stop-color:#F8FAFC;stop-opacity:1" />
      <stop offset="100%" style="stop-color:#E2E8F0;stop-opacity:1" />
    </linearGradient>
  </defs>
</svg>
