<svg width="400" height="300" viewBox="0 0 400 300" fill="none" xmlns="http://www.w3.org/2000/svg">
  <!-- Background -->
  <rect width="400" height="300" rx="12" fill="url(#matchingGradient)"/>
  
  <!-- Left Side - Job Seeker -->
  <rect x="20" y="50" width="150" height="200" rx="8" fill="#FFFFFF" opacity="0.9"/>
  
  <!-- Person Icon -->
  <circle cx="95" cy="80" r="20" fill="#8B5CF6"/>
  <rect x="80" y="100" width="30" height="40" rx="4" fill="#8B5CF6"/>
  <rect x="85" y="140" width="8" height="20" fill="#2F4F4F"/>
  <rect x="97" y="140" width="8" height="20" fill="#2F4F4F"/>
  
  <!-- Skills -->
  <rect x="30" y="120" width="20" height="8" rx="4" fill="#10B981"/>
  <rect x="55" y="120" width="25" height="8" rx="4" fill="#10B981"/>
  <rect x="85" y="120" width="18" height="8" rx="4" fill="#10B981"/>
  <rect x="108" y="120" width="22" height="8" rx="4" fill="#10B981"/>
  <rect x="135" y="120" width="15" height="8" rx="4" fill="#10B981"/>
  
  <rect x="30" y="135" width="25" height="8" rx="4" fill="#F59E0B"/>
  <rect x="60" y="135" width="20" height="8" rx="4" fill="#F59E0B"/>
  <rect x="85" y="135" width="28" height="8" rx="4" fill="#F59E0B"/>
  <rect x="118" y="135" width="17" height="8" rx="4" fill="#F59E0B"/>
  
  <rect x="30" y="150" width="22" height="8" rx="4" fill="#EF4444"/>
  <rect x="57" y="150" width="19" height="8" rx="4" fill="#EF4444"/>
  <rect x="81" y="150" width="24" height="8" rx="4" fill="#EF4444"/>
  <rect x="110" y="150" width="16" height="8" rx="4" fill="#EF4444"/>
  
  <!-- Experience -->
  <rect x="30" y="170" width="130" height="15" rx="4" fill="#F8F9FA"/>
  <rect x="35" y="175" width="120" height="5" fill="#6B7280"/>
  
  <!-- Education -->
  <rect x="30" y="190" width="130" height="15" rx="4" fill="#F8F9FA"/>
  <rect x="35" y="195" width="120" height="5" fill="#6B7280"/>
  
  <!-- Location -->
  <rect x="30" y="210" width="130" height="15" rx="4" fill="#F8F9FA"/>
  <rect x="35" y="215" width="120" height="5" fill="#6B7280"/>
  
  <!-- Right Side - Job -->
  <rect x="230" y="50" width="150" height="200" rx="8" fill="#FFFFFF" opacity="0.9"/>
  
  <!-- Company Icon -->
  <rect x="280" y="70" width="50" height="30" rx="4" fill="#10B981"/>
  <rect x="285" y="75" width="40" height="20" fill="#FFFFFF" opacity="0.8"/>
  
  <!-- Job Title -->
  <rect x="240" y="110" width="130" height="15" rx="4" fill="#8B5CF6"/>
  
  <!-- Requirements -->
  <rect x="240" y="135" width="20" height="8" rx="4" fill="#10B981"/>
  <rect x="265" y="135" width="25" height="8" rx="4" fill="#10B981"/>
  <rect x="295" y="135" width="18" height="8" rx="4" fill="#10B981"/>
  <rect x="318" y="135" width="22" height="8" rx="4" fill="#10B981"/>
  
  <rect x="240" y="150" width="25" height="8" rx="4" fill="#F59E0B"/>
  <rect x="270" y="150" width="20" height="8" rx="4" fill="#F59E0B"/>
  <rect x="295" y="150" width="28" height="8" rx="4" fill="#F59E0B"/>
  <rect x="328" y="150" width="17" height="8" rx="4" fill="#F59E0B"/>
  
  <rect x="240" y="165" width="22" height="8" rx="4" fill="#EF4444"/>
  <rect x="267" y="165" width="19" height="8" rx="4" fill="#EF4444"/>
  <rect x="291" y="165" width="24" height="8" rx="4" fill="#EF4444"/>
  <rect x="320" y="165" width="16" height="8" rx="4" fill="#EF4444"/>
  
  <!-- Salary -->
  <rect x="240" y="185" width="130" height="15" rx="4" fill="#F0FDF4"/>
  <rect x="245" y="190" width="120" height="5" fill="#10B981"/>
  
  <!-- Location -->
  <rect x="240" y="205" width="130" height="15" rx="4" fill="#F0FDF4"/>
  <rect x="245" y="210" width="120" height="5" fill="#10B981"/>
  
  <!-- Remote -->
  <rect x="240" y="225" width="130" height="15" rx="4" fill="#F0FDF4"/>
  <rect x="245" y="230" width="120" height="5" fill="#10B981"/>
  
  <!-- Match Indicator -->
  <circle cx="200" cy="150" r="25" fill="#10B981"/>
  <text x="200" y="158" font-family="Arial" font-size="16" font-weight="bold" text-anchor="middle" fill="#FFFFFF">95%</text>
  
  <!-- Connection Lines -->
  <path d="M 170 150 Q 185 150 200 150" stroke="#10B981" stroke-width="3" fill="none"/>
  <path d="M 200 150 Q 215 150 230 150" stroke="#10B981" stroke-width="3" fill="none"/>
  
  <!-- Match Details -->
  <rect x="160" y="180" width="80" height="40" rx="4" fill="#F0FDF4" stroke="#10B981" stroke-width="1"/>
  <text x="200" y="195" font-family="Arial" font-size="10" font-weight="bold" text-anchor="middle" fill="#10B981">Perfect Match!</text>
  <text x="200" y="210" font-family="Arial" font-size="8" text-anchor="middle" fill="#6B7280">Skills: 95%</text>
  <text x="200" y="220" font-family="Arial" font-size="8" text-anchor="middle" fill="#6B7280">Experience: 90%</text>
  
  <defs>
    <linearGradient id="matchingGradient" x1="0%" y1="0%" x2="100%" y2="100%">
      <stop offset="0%" style="stop-color:#F0FDF4;stop-opacity:1" />
      <stop offset="100%" style="stop-color:#DCFCE7;stop-opacity:1" />
    </linearGradient>
  </defs>
</svg>
