<svg width="200" height="200" viewBox="0 0 200 200" fill="none" xmlns="http://www.w3.org/2000/svg">
  <!-- Background -->
  <rect width="200" height="200" rx="12" fill="url(#constructionGradient)"/>
  
  <!-- Construction Site Background -->
  <rect x="20" y="120" width="160" height="60" fill="#8B4513" opacity="0.3"/>
  <rect x="30" y="110" width="20" height="70" fill="#A0522D"/>
  <rect x="60" y="100" width="20" height="80" fill="#A0522D"/>
  <rect x="90" y="105" width="20" height="75" fill="#A0522D"/>
  <rect x="120" y="95" width="20" height="85" fill="#A0522D"/>
  <rect x="150" y="110" width="20" height="70" fill="#A0522D"/>
  
  <!-- Person -->
  <circle cx="100" cy="70" r="25" fill="#D4AF8C"/>
  <rect x="75" y="95" width="50" height="40" rx="8" fill="#4169E1"/>
  <rect x="80" y="135" width="20" height="30" fill="#2F4F4F"/>
  <rect x="100" y="135" width="20" height="30" fill="#2F4F4F"/>
  
  <!-- Hard Hat -->
  <ellipse cx="100" cy="60" rx="28" ry="20" fill="#FFD700"/>
  <rect x="85" y="50" width="30" height="8" fill="#FFA500"/>
  
  <!-- Safety Vest -->
  <rect x="75" y="95" width="50" height="40" rx="8" fill="#FFD700" opacity="0.8"/>
  <rect x="85" y="105" width="30" height="20" fill="#FF0000" opacity="0.6"/>
  
  <!-- Blueprints -->
  <rect x="40" y="50" width="25" height="35" fill="#FFFFFF" stroke="#000000" stroke-width="1"/>
  <line x1="45" y1="55" x2="60" y2="55" stroke="#000000" stroke-width="0.5"/>
  <line x1="45" y1="60" x2="60" y2="60" stroke="#000000" stroke-width="0.5"/>
  <line x1="45" y1="65" x2="60" y2="65" stroke="#000000" stroke-width="0.5"/>
  <line x1="45" y1="70" x2="60" y2="70" stroke="#000000" stroke-width="0.5"/>
  
  <!-- Tablet -->
  <rect x="135" y="60" width="20" height="30" rx="2" fill="#2C2C2C"/>
  <rect x="137" y="62" width="16" height="26" fill="#87CEEB"/>
  <circle cx="145" cy="90" r="2" fill="#2C2C2C"/>
  
  <!-- Tools -->
  <rect x="25" y="80" width="3" height="15" fill="#696969"/>
  <rect x="26" y="75" width="1" height="8" fill="#FFD700"/>
  
  <defs>
    <linearGradient id="constructionGradient" x1="0%" y1="0%" x2="100%" y2="100%">
      <stop offset="0%" style="stop-color:#E6F3FF;stop-opacity:1" />
      <stop offset="100%" style="stop-color:#B3D9FF;stop-opacity:1" />
    </linearGradient>
  </defs>
</svg>
