<svg width="200" height="200" viewBox="0 0 200 200" fill="none" xmlns="http://www.w3.org/2000/svg">
  <!-- Background -->
  <rect width="200" height="200" rx="12" fill="url(#culinaryGradient)"/>
  
  <!-- Kitchen Background -->
  <rect x="20" y="120" width="160" height="60" fill="#F5F5DC" opacity="0.8"/>
  <rect x="30" y="110" width="140" height="10" fill="#D2B48C"/>
  <rect x="30" y="130" width="140" height="10" fill="#D2B48C"/>
  <rect x="30" y="150" width="140" height="10" fill="#D2B48C"/>
  
  <!-- Person -->
  <circle cx="100" cy="70" r="25" fill="#D4AF8C"/>
  <rect x="75" y="95" width="50" height="40" rx="8" fill="#FFFFFF"/>
  <rect x="80" y="135" width="20" height="30" fill="#2F4F4F"/>
  <rect x="100" y="135" width="20" height="30" fill="#2F4F4F"/>
  
  <!-- Chef Uniform -->
  <rect x="75" y="95" width="50" height="40" rx="8" fill="#FFFFFF"/>
  <rect x="85" y="105" width="30" height="20" fill="#FF6B6B" opacity="0.3"/>
  
  <!-- Chef Hat -->
  <ellipse cx="100" cy="50" rx="30" ry="15" fill="#FFFFFF"/>
  <rect x="85" y="45" width="30" height="10" fill="#FFFFFF"/>
  <rect x="90" y="40" width="20" height="15" fill="#FFFFFF"/>
  
  <!-- Plates -->
  <circle cx="60" cy="80" r="15" fill="#FFFFFF" stroke="#D3D3D3" stroke-width="2"/>
  <circle cx="60" cy="80" r="10" fill="#FFD700"/>
  <circle cx="60" cy="80" r="5" fill="#FF6347"/>
  
  <circle cx="140" cy="80" r="15" fill="#FFFFFF" stroke="#D3D3D3" stroke-width="2"/>
  <circle cx="140" cy="80" r="10" fill="#32CD32"/>
  <circle cx="140" cy="80" r="5" fill="#228B22"/>
  
  <!-- Kitchen Utensils -->
  <rect x="40" y="50" width="2" height="20" fill="#C0C0C0"/>
  <rect x="39" y="48" width="4" height="4" fill="#C0C0C0"/>
  
  <rect x="150" y="50" width="2" height="20" fill="#C0C0C0"/>
  <rect x="149" y="48" width="4" height="4" fill="#C0C0C0"/>
  
  <!-- Steam -->
  <path d="M 60 65 Q 58 60 60 55 Q 62 50 60 45" stroke="#E0E0E0" stroke-width="1" fill="none" opacity="0.6"/>
  <path d="M 65 65 Q 63 60 65 55 Q 67 50 65 45" stroke="#E0E0E0" stroke-width="1" fill="none" opacity="0.6"/>
  <path d="M 70 65 Q 68 60 70 55 Q 72 50 70 45" stroke="#E0E0E0" stroke-width="1" fill="none" opacity="0.6"/>
  
  <path d="M 140 65 Q 138 60 140 55 Q 142 50 140 45" stroke="#E0E0E0" stroke-width="1" fill="none" opacity="0.6"/>
  <path d="M 145 65 Q 143 60 145 55 Q 147 50 145 45" stroke="#E0E0E0" stroke-width="1" fill="none" opacity="0.6"/>
  <path d="M 150 65 Q 148 60 150 55 Q 152 50 150 45" stroke="#E0E0E0" stroke-width="1" fill="none" opacity="0.6"/>
  
  <!-- Kitchen Equipment -->
  <rect x="25" y="100" width="20" height="15" fill="#696969"/>
  <rect x="27" y="102" width="16" height="11" fill="#FFD700"/>
  
  <rect x="155" y="100" width="20" height="15" fill="#696969"/>
  <rect x="157" y="102" width="16" height="11" fill="#FFD700"/>
  
  <defs>
    <linearGradient id="culinaryGradient" x1="0%" y1="0%" x2="100%" y2="100%">
      <stop offset="0%" style="stop-color:#FFF8DC;stop-opacity:1" />
      <stop offset="100%" style="stop-color:#FFE4B5;stop-opacity:1" />
    </linearGradient>
  </defs>
</svg>
