<svg width="200" height="200" viewBox="0 0 200 200" fill="none" xmlns="http://www.w3.org/2000/svg">
  <!-- Background -->
  <rect width="200" height="200" rx="12" fill="url(#educationGradient)"/>
  
  <!-- Classroom Background -->
  <rect x="20" y="120" width="160" height="60" fill="#F0F8FF" opacity="0.8"/>
  <rect x="30" y="110" width="140" height="10" fill="#E0E0E0"/>
  <rect x="30" y="130" width="140" height="10" fill="#E0E0E0"/>
  <rect x="30" y="150" width="140" height="10" fill="#E0E0E0"/>
  
  <!-- Person -->
  <circle cx="100" cy="70" r="25" fill="#D4AF8C"/>
  <rect x="75" y="95" width="50" height="40" rx="8" fill="#4169E1"/>
  <rect x="80" y="135" width="20" height="30" fill="#2F4F4F"/>
  <rect x="100" y="135" width="20" height="30" fill="#2F4F4F"/>
  
  <!-- Teacher Attire -->
  <rect x="75" y="95" width="50" height="40" rx="8" fill="#4169E1"/>
  <rect x="85" y="105" width="30" height="20" fill="#FFFFFF" opacity="0.8"/>
  
  <!-- Graduation Cap -->
  <rect x="85" y="45" width="30" height="8" fill="#000000"/>
  <rect x="90" y="40" width="20" height="15" fill="#000000"/>
  <circle cx="100" cy="50" r="2" fill="#FFD700"/>
  
  <!-- Books -->
  <rect x="40" y="50" width="15" height="20" rx="2" fill="#8B4513"/>
  <rect x="42" y="52" width="11" height="16" fill="#DEB887"/>
  <rect x="44" y="54" width="7" height="2" fill="#000000"/>
  <rect x="44" y="58" width="7" height="2" fill="#000000"/>
  <rect x="44" y="62" width="7" height="2" fill="#000000"/>
  
  <rect x="145" y="50" width="15" height="20" rx="2" fill="#8B4513"/>
  <rect x="147" y="52" width="11" height="16" fill="#DEB887"/>
  <rect x="149" y="54" width="7" height="2" fill="#000000"/>
  <rect x="149" y="58" width="7" height="2" fill="#000000"/>
  <rect x="149" y="62" width="7" height="2" fill="#000000"/>
  
  <!-- Chalkboard -->
  <rect x="25" y="80" width="30" height="20" fill="#2F4F4F"/>
  <rect x="27" y="82" width="26" height="16" fill="#000000"/>
  <line x1="30" y1="85" x2="50" y2="85" stroke="#FFFFFF" stroke-width="1"/>
  <line x1="30" y1="88" x2="45" y2="88" stroke="#FFFFFF" stroke-width="1"/>
  <line x1="30" y1="91" x2="48" y2="91" stroke="#FFFFFF" stroke-width="1"/>
  
  <!-- Apple -->
  <circle cx="150" cy="80" r="8" fill="#FF0000"/>
  <rect x="148" y="72" width="4" height="6" fill="#8B4513"/>
  <path d="M 146 75 Q 148 73 150 75" stroke="#228B22" stroke-width="1" fill="none"/>
  
  <!-- Globe -->
  <circle cx="100" cy="40" r="12" fill="#87CEEB" stroke="#4169E1" stroke-width="2"/>
  <path d="M 88 40 Q 100 28 112 40" stroke="#4169E1" stroke-width="1" fill="none"/>
  <path d="M 88 40 Q 100 52 112 40" stroke="#4169E1" stroke-width="1" fill="none"/>
  <line x1="100" y1="28" x2="100" y2="52" stroke="#4169E1" stroke-width="1"/>
  
  <defs>
    <linearGradient id="educationGradient" x1="0%" y1="0%" x2="100%" y2="100%">
      <stop offset="0%" style="stop-color:#E6F3FF;stop-opacity:1" />
      <stop offset="100%" style="stop-color:#B3D9FF;stop-opacity:1" />
    </linearGradient>
  </defs>
</svg>
