<svg width="200" height="200" viewBox="0 0 200 200" fill="none" xmlns="http://www.w3.org/2000/svg">
  <!-- Background -->
  <rect width="200" height="200" rx="12" fill="url(#techGradient)"/>
  
  <!-- Office Background -->
  <rect x="20" y="120" width="160" height="60" fill="#F8F9FA" opacity="0.8"/>
  <rect x="30" y="110" width="140" height="10" fill="#E9ECEF"/>
  <rect x="30" y="130" width="140" height="10" fill="#E9ECEF"/>
  <rect x="30" y="150" width="140" height="10" fill="#E9ECEF"/>
  
  <!-- Person -->
  <circle cx="100" cy="70" r="25" fill="#D4AF8C"/>
  <rect x="75" y="95" width="50" height="40" rx="8" fill="#2C2C2C"/>
  <rect x="80" y="135" width="20" height="30" fill="#2F4F4F"/>
  <rect x="100" y="135" width="20" height="30" fill="#2F4F4F"/>
  
  <!-- Shirt -->
  <rect x="75" y="95" width="50" height="40" rx="8" fill="#2C2C2C"/>
  <rect x="85" y="105" width="30" height="20" fill="#4A4A4A" opacity="0.5"/>
  
  <!-- Computer Monitors -->
  <rect x="40" y="50" width="25" height="20" rx="2" fill="#2C2C2C"/>
  <rect x="42" y="52" width="21" height="16" fill="#87CEEB"/>
  <rect x="44" y="54" width="17" height="2" fill="#32CD32"/>
  <rect x="44" y="58" width="17" height="2" fill="#FFD700"/>
  <rect x="44" y="62" width="17" height="2" fill="#FF6347"/>
  
  <rect x="135" y="50" width="25" height="20" rx="2" fill="#2C2C2C"/>
  <rect x="137" y="52" width="21" height="16" fill="#87CEEB"/>
  <rect x="139" y="54" width="17" height="2" fill="#32CD32"/>
  <rect x="139" y="58" width="17" height="2" fill="#FFD700"/>
  <rect x="139" y="62" width="17" height="2" fill="#FF6347"/>
  
  <!-- Monitor Stands -->
  <rect x="50" y="70" width="5" height="8" fill="#696969"/>
  <rect x="145" y="70" width="5" height="8" fill="#696969"/>
  
  <!-- Keyboard -->
  <rect x="70" y="85" width="60" height="8" rx="1" fill="#2C2C2C"/>
  <rect x="72" y="87" width="56" height="4" fill="#4A4A4A"/>
  
  <!-- Mouse -->
  <ellipse cx="140" cy="89" rx="4" ry="6" fill="#2C2C2C"/>
  
  <!-- Code Lines -->
  <text x="50" y="45" font-family="monospace" font-size="3" fill="#32CD32">&lt;div&gt;</text>
  <text x="50" y="50" font-family="monospace" font-size="3" fill="#FFD700">  &lt;h1&gt;</text>
  <text x="50" y="55" font-family="monospace" font-size="3" fill="#FF6347">    Hello World</text>
  <text x="50" y="60" font-family="monospace" font-size="3" fill="#FFD700">  &lt;/h1&gt;</text>
  <text x="50" y="65" font-family="monospace" font-size="3" fill="#32CD32">&lt;/div&gt;</text>
  
  <!-- Coffee Cup -->
  <rect x="25" y="80" width="8" height="12" rx="1" fill="#8B4513"/>
  <rect x="26" y="81" width="6" height="10" fill="#D2691E"/>
  <rect x="27" y="82" width="4" height="8" fill="#FFD700"/>
  <path d="M 33 82 Q 35 80 37 82" stroke="#8B4513" stroke-width="1" fill="none"/>
  
  <!-- Glasses -->
  <circle cx="90" cy="70" r="8" fill="none" stroke="#2C2C2C" stroke-width="1"/>
  <circle cx="110" cy="70" r="8" fill="none" stroke="#2C2C2C" stroke-width="1"/>
  <line x1="98" y1="70" x2="102" y2="70" stroke="#2C2C2C" stroke-width="1"/>
  
  <!-- Network/Connection Lines -->
  <path d="M 30 40 Q 50 35 70 40" stroke="#32CD32" stroke-width="1" fill="none" opacity="0.6"/>
  <path d="M 130 40 Q 150 35 170 40" stroke="#32CD32" stroke-width="1" fill="none" opacity="0.6"/>
  <circle cx="30" cy="40" r="2" fill="#32CD32"/>
  <circle cx="70" cy="40" r="2" fill="#32CD32"/>
  <circle cx="130" cy="40" r="2" fill="#32CD32"/>
  <circle cx="170" cy="40" r="2" fill="#32CD32"/>
  
  <defs>
    <linearGradient id="techGradient" x1="0%" y1="0%" x2="100%" y2="100%">
      <stop offset="0%" style="stop-color:#E6E6FA;stop-opacity:1" />
      <stop offset="100%" style="stop-color:#D8BFD8;stop-opacity:1" />
    </linearGradient>
  </defs>
</svg>
